<?xml version="1.0" encoding="utf-8"?>
<!-- Generator: Adobe Illustrator 25.4.1, SVG Export Plug-In . SVG Version: 6.00 Build 0)  -->
<svg version="1.1" id="Layer_1" xmlns="http://www.w3.org/2000/svg" xmlns:xlink="http://www.w3.org/1999/xlink" x="0px" y="0px"
	 viewBox="0 0 741.5 452" style="enable-background:new 0 0 741.5 452;" xml:space="preserve">
<style type="text/css">
	.st0{fill:#FFFFFF;fill-opacity:0;}
	.st1{fill:none;stroke:#000000;stroke-width:1.99;stroke-linejoin:bevel;}
	.st2{fill:none;stroke:#000000;stroke-width:14;stroke-linejoin:bevel;}
	.st3{fill:none;stroke:#000000;stroke-width:1.2;stroke-linejoin:bevel;}
	.st4{fill:none;stroke:#000000;stroke-width:4;stroke-linejoin:bevel;}
	.st5{display:none;}
	.st6{display:inline;fill:#FFFFFF;}
	.st7{fill:none;}
</style>
<g id="INVISIBLE_LAYER">
	<rect x="0.5" class="st0" width="740" height="452"/>
</g>
<g id="staff_lines_with_end">
	<g id="end_repeat">
		<line class="st1" x1="714.2" y1="84" x2="714.2" y2="251.3"/>
		<line class="st2" x1="733.2" y1="84" x2="733.2" y2="251.3"/>
		<ellipse cx="697.1" cy="147.6" rx="7" ry="6.9"/>
		<ellipse cx="697.1" cy="188.2" rx="7" ry="6.9"/>
	</g>
	<g id="Staff">
		<line class="st3" x1="0" y1="251.5" x2="740" y2="251.5"/>
		<line class="st3" x1="0" y1="209.5" x2="740" y2="209.5"/>
		<line class="st3" x1="0" y1="167.5" x2="740" y2="167.5"/>
		<line class="st3" x1="0" y1="125.5" x2="740" y2="125.5"/>
		<line class="st3" x1="0" y1="83.5" x2="740" y2="83.5"/>
	</g>
	<g id="Bar">
		<line id="end" class="st1" x1="740.5" y1="83.7" x2="740.5" y2="252.8"/>
	</g>
</g>
<g id="all_note_examples">
	<g id="qtr_dwn">
		<line class="st4" x1="603" y1="294" x2="693" y2="294"/>
	</g>
	<g id="qtr_up">
		<g id="qtr_up_letter">
			<g id="quarter_letters">
				
					<ellipse id="quarter_note_head-4" transform="matrix(0.8854 -0.4648 0.4648 0.8854 -61.9904 334.815)" cx="648" cy="293.1" rx="30" ry="20"/>
				<g id="C" class="st5">
					<path class="st6" d="M642.3,304.6c-1.8-1-3.3-2.6-4.2-4.5c-1.9-4.4-1.9-9.3,0-13.7c0.9-1.9,2.4-3.4,4.2-4.5
						c2-1.1,4.2-1.6,6.4-1.6c1.5,0,3,0.2,4.4,0.7c1.3,0.4,2.6,1.1,3.7,2c0.3,0.2,0.5,0.5,0.7,0.8c0.1,0.3,0.2,0.7,0.2,1
						c0,0.5-0.1,0.9-0.4,1.3c-0.2,0.3-0.6,0.5-1,0.5c-0.5,0-1-0.2-1.5-0.5c-0.9-0.7-1.8-1.2-2.9-1.6c-0.9-0.3-1.9-0.5-2.9-0.5
						c-2.1-0.1-4.2,0.7-5.6,2.3c-1.3,1.5-1.9,3.8-1.9,6.8s0.6,5.3,1.9,6.9c1.4,1.6,3.5,2.5,5.6,2.3c1,0,1.9-0.1,2.8-0.5
						c1-0.4,2-0.9,3-1.6c0.2-0.1,0.5-0.3,0.7-0.4c0.2-0.1,0.5-0.1,0.8-0.1c0.4,0,0.8,0.2,1,0.5c0.3,0.4,0.4,0.9,0.4,1.3
						c0,0.3-0.1,0.6-0.2,0.9c-0.1,0.3-0.4,0.6-0.7,0.8c-1.1,0.9-2.3,1.6-3.7,2c-1.4,0.5-2.9,0.7-4.4,0.7
						C646.4,306.3,644.2,305.7,642.3,304.6z"/>
				</g>
			</g>
			<line id="stem_up" class="st4" x1="674.1" y1="137" x2="674.1" y2="283.9"/>
		</g>
		<g id="qtr_up_letter-2">
			<g id="quarter_letters-2">
				
					<ellipse id="quarter_note_head-4-2" transform="matrix(0.8854 -0.4648 0.4648 0.8854 -74.3586 246.6364)" cx="463" cy="274.1" rx="30" ry="20"/>
				<g id="D" class="st5">
					<path class="st6" d="M454.8,286.3c-0.4-0.4-0.6-1-0.6-1.6v-20.9c0-0.6,0.2-1.2,0.6-1.6c0.4-0.4,1-0.6,1.6-0.6h7.1
						c4.1,0,7.3,1.1,9.6,3.3c2.3,2.2,3.4,5.3,3.4,9.3c0,4-1.1,7.1-3.4,9.3c-2.3,2.2-5.5,3.3-9.6,3.3h-7.1
						C455.8,286.9,455.2,286.7,454.8,286.3z M463.2,283.1c5.8,0,8.7-3,8.7-8.9s-2.9-8.8-8.7-8.8h-4.4v17.7L463.2,283.1z"/>
				</g>
			</g>
			<line id="stem_up-2" class="st4" x1="489.1" y1="118" x2="489.1" y2="264.9"/>
		</g>
		<g id="qtr_up_letter-3">
			<g id="quarter_letters-3">
				
					<ellipse id="quarter_note_head-4-3" transform="matrix(0.8854 -0.4648 0.4648 0.8854 -85.7955 158.2332)" cx="278" cy="253.1" rx="30" ry="20"/>
				<g id="E" class="st5">
					<path class="st6" d="M269.8,264.3c-0.4-0.4-0.6-1-0.6-1.6v-20.8c0-0.6,0.2-1.2,0.6-1.6c0.4-0.4,1-0.6,1.6-0.6h12.9
						c0.6,0,1.1,0.1,1.6,0.5c0.4,0.3,0.6,0.8,0.6,1.3c0,0.5-0.2,1-0.6,1.4c-0.5,0.3-1,0.5-1.6,0.5h-10.6v6.9h9.9
						c0.6,0,1.1,0.1,1.6,0.5c0.4,0.3,0.6,0.8,0.6,1.4c0,0.5-0.2,1-0.6,1.3c-0.5,0.3-1,0.5-1.6,0.5h-9.9v7.4h10.6
						c0.6,0,1.1,0.1,1.6,0.5c0.4,0.3,0.6,0.9,0.6,1.4c0,0.5-0.2,1-0.6,1.3c-0.5,0.3-1,0.5-1.6,0.5h-12.9
						C270.8,264.9,270.2,264.7,269.8,264.3z"/>
				</g>
			</g>
			<line id="stem_up-3" class="st4" x1="304.1" y1="97" x2="304.1" y2="243.9"/>
		</g>
		<g id="qtr_up_letter-4">
			<g id="quarter_letters-4">
				
					<ellipse id="quarter_note_head-4-4" transform="matrix(0.8854 -0.4648 0.4648 0.8854 -96.3071 69.6021)" cx="93" cy="230.1" rx="30" ry="20"/>
				<g id="F" class="st5">
					<path class="st6" d="M84.8,241.6c-0.4-0.5-0.7-1.1-0.6-1.7V219c0-0.6,0.2-1.2,0.6-1.6c0.4-0.4,1-0.6,1.6-0.6h12.6
						c1.5,0,2.2,0.6,2.2,1.9s-0.7,1.8-2.2,1.8H88.7v6.9h9.5c1.4,0,2.2,0.6,2.2,1.9s-0.7,1.8-2.2,1.8h-9.5v8.9c0,0.6-0.2,1.2-0.6,1.7
						c-0.4,0.4-1,0.7-1.7,0.6C85.9,242.2,85.3,242,84.8,241.6z"/>
				</g>
			</g>
			<line id="stem_up-4" class="st4" x1="119.1" y1="74" x2="119.1" y2="220.9"/>
		</g>
	</g>
	<rect x="64.5" y="269" class="st7" width="57" height="47"/>
</g>
</svg>
